<?xml version="1.0" encoding="UTF-8" standalone="no"?>
<!-- Created with Inkscape (http://www.inkscape.org/) -->

<svg
   width="135.3535mm"
   height="144.4792mm"
   viewBox="0 0 135.3535 144.4792"
   version="1.1"
   id="svg1"
   xml:space="preserve"
   inkscape:version="1.4.2 (f4327f4, 2025-05-13)"
   sodipodi:docname="arvore_vetor.svg"
   xmlns:inkscape="http://www.inkscape.org/namespaces/inkscape"
   xmlns:sodipodi="http://sodipodi.sourceforge.net/DTD/sodipodi-0.dtd"
   xmlns="http://www.w3.org/2000/svg"
   xmlns:svg="http://www.w3.org/2000/svg"><sodipodi:namedview
     id="namedview1"
     pagecolor="#ffffff"
     bordercolor="#000000"
     borderopacity="0.25"
     inkscape:showpageshadow="2"
     inkscape:pageopacity="0.0"
     inkscape:pagecheckerboard="0"
     inkscape:deskcolor="#d1d1d1"
     inkscape:document-units="mm"
     inkscape:zoom="0.52221046"
     inkscape:cx="10.532152"
     inkscape:cy="470.11697"
     inkscape:window-width="1920"
     inkscape:window-height="1009"
     inkscape:window-x="-8"
     inkscape:window-y="-8"
     inkscape:window-maximized="1"
     inkscape:current-layer="layer1" /><defs
     id="defs1" /><g
     inkscape:label="Camada 1"
     inkscape:groupmode="layer"
     id="layer1"
     transform="translate(-11.426887,-31.257684)"><path
       style="fill:#000000;stroke-width:0.718527"
       d="m 42.913719,175.4577 c -0.136836,-0.35659 0.69496,-1.35282 1.459767,-1.74831 0.322985,-0.16703 1.702981,-0.49897 3.066645,-0.73765 13.057633,-2.2855 16.29814,-3.09009 19.759917,-4.90626 3.775652,-1.98083 4.759897,-4.25972 5.061377,-11.71901 0.196164,-4.85345 0.265919,-5.90164 0.771798,-11.59672 0.199686,-2.24806 0.458901,-6.11899 0.576028,-8.60206 l 0.212958,-4.51468 -0.798298,-1.34374 c -1.038882,-1.74869 -3.277001,-4.40538 -5.120375,-6.07796 -1.76948,-1.60553 -6.231749,-4.99088 -7.290498,-5.53101 -0.850406,-0.43385 -0.898303,-0.43283 -5.285715,0.1122 l -2.766933,0.34372 0.01035,0.87734 0.01035,0.87735 -0.874139,-0.0283 c -0.480773,-0.0156 -1.408686,-0.24422 -2.062014,-0.50811 l -1.187876,-0.47981 0.123292,0.41306 c 0.06783,0.22718 0.172295,0.72955 0.232185,1.11638 0.09923,0.6409 0.06424,0.71453 -0.393818,0.82951 -0.625233,0.15692 -1.408025,-0.15818 -2.448977,-0.98581 -0.441628,-0.35112 -0.857591,-0.63922 -0.924378,-0.64024 -0.06675,-7.2e-4 -0.181054,0.31601 -0.253935,0.7045 -0.272307,1.45152 -1.039256,2.33542 -2.026418,2.33542 -0.593152,0 -1.343797,-0.78924 -1.707644,-1.79546 l -0.236827,-0.65492 -0.786873,0.84497 c -0.432776,0.46473 -0.883056,0.84496 -1.000621,0.84496 -0.485329,0 -1.186676,-0.89806 -1.410433,-1.80604 -0.128832,-0.5228 -0.254753,-0.98169 -0.279808,-1.01975 -0.02508,-0.0381 -0.275484,0.11165 -0.556492,0.33269 -0.704107,0.55385 -1.47242,0.51118 -2.177389,-0.12091 -0.482426,-0.43256 -0.602399,-0.7115 -0.694981,-1.61593 -0.06158,-0.60123 -0.18188,-1.09314 -0.267407,-1.09314 -0.08553,0 -0.388206,-0.40636 -0.67262,-0.90302 -0.284422,-0.49667 -0.529123,-0.92313 -0.543789,-0.94768 -0.01466,-0.0246 -0.359723,0.12515 -0.766804,0.33269 -1.110218,0.56602 -1.565656,0.48898 -2.390403,-0.4044 l -0.721703,-0.78173 -0.510449,0.40152 c -0.751802,0.59136 -1.638831,0.52258 -2.450414,-0.19 -0.37053,-0.32533 -0.72337,-0.78943 -0.784086,-1.03135 l -0.110394,-0.43984 -0.823475,0.62858 c -1.992727,1.52108 -4.725307,1.20594 -5.210212,-0.60089 -0.146379,-0.54543 -0.120612,-1.04645 0.105566,-2.05235 0.164571,-0.73193 0.340783,-1.55349 0.39159,-1.82569 l 0.09237,-0.49492 -1.585897,-0.0997 c -1.679944,-0.10559 -2.824989,-0.47484 -3.531926,-1.13897 -0.325802,-0.30608 -0.430348,-0.61623 -0.430348,-1.27671 0,-1.46097 1.5972,-3.46281 3.211989,-4.02573 l 0.611653,-0.21322 -1.071705,-1.06319 c -0.589436,-0.58476 -1.287758,-1.43186 -1.551824,-1.882457 -0.575461,-0.981953 -0.411594,-1.321414 0.725683,-1.503273 0.40466,-0.06474 0.735751,-0.192271 0.735751,-0.283466 0,-0.0912 -0.08375,-0.165815 -0.186099,-0.165815 -0.311862,0 -2.290707,-2.116888 -2.66539,-2.851323 -0.403432,-0.79079 -0.337442,-0.963797 0.538902,-1.412919 l 0.634115,-0.324983 -0.866199,-0.549328 C 12.473235,91.609479 12.381357,90.31659 13.616053,89.588104 l 0.660678,-0.389815 -0.759799,-0.550399 c -0.984303,-0.713023 -2.084002,-2.218532 -2.090009,-2.861268 -0.0057,-0.633353 0.656806,-0.901479 2.61301,-1.057176 l 1.382001,-0.109992 -0.306351,-0.467546 c -0.410006,-0.625751 -0.413247,-1.988789 -0.0065,-2.610021 0.452255,-0.690224 1.138894,-0.903353 2.645537,-0.821161 1.099282,0.06 1.280049,0.02651 1.19721,-0.221393 -0.76651,-2.294141 -0.937606,-3.08182 -0.771001,-3.549387 0.263671,-0.739975 0.713591,-0.963164 1.410993,-0.699924 0.542524,0.20478 0.575167,0.190719 0.575167,-0.247763 0,-0.832952 0.540914,-1.787644 1.597077,-2.818795 l 1.036267,-1.011722 -0.569354,-0.544867 c -2.398752,-2.295557 -2.007205,-3.88062 1.158747,-4.690846 l 0.948959,-0.242856 -0.660025,-0.928338 c -0.363007,-0.510585 -0.660017,-1.004104 -0.660017,-1.096708 0,-0.0926 -0.312401,-0.809022 -0.694212,-1.59204 -0.882553,-1.809911 -1.025992,-3.00547 -0.448368,-3.737186 0.73003,-0.924772 1.4389,-1.172716 3.370294,-1.178837 l 1.752444,-0.0055 -0.01832,-2.03983 c -0.0189,-2.104932 0.198917,-2.855809 0.907262,-3.127628 0.43828,-0.168181 1.710123,0.489422 2.663264,1.377023 0.921439,0.858087 0.946753,0.84538 1.080169,-0.542289 0.04972,-0.516977 0.241123,-1.080608 0.442742,-1.303636 0.304001,-0.336285 0.498068,-0.376131 1.346886,-0.276538 l 0.991718,0.11636 -0.373857,-0.87217 C 33.276588,49.708003 33.776288,49.017934 35.723748,49.1588 l 1.105676,0.07998 -0.08235,-1.435526 c -0.162287,-2.828954 0.502157,-3.821334 2.055928,-3.070631 0.451666,0.218222 0.846145,0.371837 0.876618,0.341365 0.03046,-0.03047 0.357108,-0.717454 0.725863,-1.526629 0.762206,-1.67255 1.396127,-2.407663 2.076227,-2.407663 0.85019,0 2.101404,1.362545 3.355377,3.653927 l 0.491063,0.897327 1.128591,-2.513265 c 1.686476,-3.755617 3.210752,-5.145625 4.226548,-3.85425 l 0.365817,0.465063 0.411787,-0.556979 c 0.636472,-0.860871 1.447739,-1.196893 2.602067,-1.077756 1.190944,0.122916 2.192959,0.611281 3.591557,1.750456 0.577516,0.470392 1.081455,0.855257 1.119861,0.855257 0.03844,0 0.03485,-0.406361 -0.0079,-0.903024 -0.09669,-1.123325 0.417004,-2.038279 1.367321,-2.435346 1.12096,-0.468369 2.193577,-0.247987 3.688134,0.757776 0.91863,0.618196 0.959672,0.627452 1.268582,0.286114 0.529202,-0.584762 1.527681,-0.797443 3.337543,-0.710912 l 1.688475,0.08073 7.11e-4,-0.866517 c 7.19e-4,-1.099158 0.55734,-2.037075 1.423172,-2.398841 0.908383,-0.379547 1.414305,-0.344164 2.429778,0.169934 l 0.876338,0.443659 0.217096,-0.904951 c 0.84687,-3.530163 4.198547,-4.103685 5.772955,-0.987838 0.362691,0.717792 0.876675,3.035605 0.876675,3.953388 0,0.352957 0.08555,0.694611 0.190108,0.759233 0.10456,0.06462 0.190115,0.02564 0.190115,-0.08663 0,-0.365552 1.217616,-0.957539 1.970991,-0.958267 0.59987,-5.8e-4 0.869871,0.133878 1.466105,0.730113 l 0.730828,0.730824 0.65419,-0.985285 c 0.595256,-0.896525 0.913061,-1.126608 2.069379,-1.498183 0.253554,-0.08148 0.332693,-0.316292 0.332693,-0.987167 0,-1.650208 0.760798,-2.554567 2.147684,-2.552949 1.056644,0.0012 2.053184,0.834105 3.100351,2.591168 0.188965,0.317074 0.251908,0.270612 0.625528,-0.461736 0.445961,-0.874164 1.35923,-1.55795 2.082342,-1.559101 1.311074,-0.0021 2.179408,1.014343 2.420738,2.833573 l 0.12647,0.953355 0.53737,-0.277882 c 1.13648,-0.587699 2.4694,-0.19203 3.13204,0.929728 0.23642,0.400231 0.34259,0.949016 0.33521,1.732753 l -0.0108,1.147008 h 0.82756 c 0.67762,0 0.93783,0.110285 1.43628,0.608723 0.5188,0.518806 0.62086,0.776638 0.69095,1.745486 0.0807,1.116395 0.0906,1.13359 0.54797,0.959687 0.60125,-0.228594 1.68979,-0.224215 2.5322,0.01019 1.32314,0.368161 1.91345,1.097017 3.13682,3.873056 0.62736,1.423594 1.18344,2.589317 1.23572,2.590495 0.0523,0.0011 0.34642,-0.478902 0.65364,-1.066846 0.76801,-1.469755 2.29392,-3.112534 2.89111,-3.112534 0.67004,0 1.33204,0.758108 2.06335,2.362849 l 0.63997,1.404307 0.76453,-0.378265 c 1.49676,-0.74054 2.01229,-0.111503 2.00793,2.450088 l -0.003,1.751608 1.09346,-0.04062 c 0.91453,-0.03397 1.16403,0.02983 1.52473,0.389915 0.45205,0.451286 0.42712,0.642148 -0.30598,2.342404 -0.11177,0.259228 0.0121,0.289711 0.88392,0.217419 1.22635,-0.101699 1.48251,0.126116 1.60767,1.429815 0.13471,1.403147 0.19899,1.490261 0.66374,0.899434 0.58095,-0.738565 2.02894,-1.612452 2.67175,-1.612452 0.78722,0 1.09371,0.863869 1.09387,3.083186 l 1.2e-4,1.764626 1.66334,0.0081 c 3.46235,0.01689 4.25593,1.433911 2.63745,4.70946 -0.37892,0.766875 -0.68894,1.45807 -0.68894,1.535994 0,0.07792 -0.25083,0.506231 -0.55739,0.951797 l -0.55737,0.810125 1.14296,0.342371 c 2.71354,0.812833 2.9512,1.984851 0.85815,4.2318 l -0.57074,0.61271 0.97419,0.9742 c 1.11935,1.119351 1.75504,2.471511 1.37641,2.927732 -0.19174,0.231028 -0.55525,0.261055 -1.95631,0.161604 -1.63284,-0.115898 -1.71549,-0.103568 -1.6167,0.241159 0.0573,0.199816 0.21692,0.769665 0.35477,1.266325 0.26975,0.971751 0.37541,1.059734 0.74213,0.617862 0.29208,-0.351928 1.32911,-0.372269 1.79019,-0.03514 0.18809,0.137526 0.44471,0.654635 0.57026,1.149126 l 0.22829,0.899078 0.51754,-0.407103 c 0.43284,-0.340467 0.5662,-0.366729 0.81479,-0.160411 0.23811,0.197609 0.28123,0.551117 0.21674,1.776924 -0.0443,0.84164 -0.14705,1.67996 -0.22839,1.86294 -0.10601,0.238479 -0.0632,0.332692 0.15097,0.332692 1.18439,0 3.97235,1.563558 3.88317,2.177777 -0.0479,0.329825 -1.14426,1.311362 -1.9992,1.789814 -0.25948,0.145215 -0.0559,0.424851 1.22248,1.679428 1.55819,1.529148 2.33868,2.71175 2.33868,3.543589 0,0.57018 -0.38154,0.689038 -2.22311,0.69253 l -1.36761,0.0029 0.38456,0.869346 c 0.46607,1.053627 0.36456,1.411978 -0.39997,1.411978 -0.67938,0 -0.68098,0.0092 -0.21472,1.235969 0.19876,0.52294 0.42172,1.35313 0.49546,1.84486 0.12643,0.84311 0.10711,0.90083 -0.3391,1.01282 -0.30206,0.0758 -0.91638,-0.0586 -1.69867,-0.37151 -0.67401,-0.26964 -1.26154,-0.49036 -1.30562,-0.49048 -0.044,-1.2e-4 -0.0511,0.89278 -0.0157,1.98422 0.0466,1.43292 -0.0216,2.28044 -0.24515,3.04953 -0.44565,1.53301 -0.91791,1.65409 -3.00369,0.7701 -0.26841,-0.11377 -0.33269,-0.0441 -0.33269,0.36058 0,0.68704 -0.39083,0.77905 -1.31234,0.30893 -0.42838,-0.21854 -0.77887,-0.36358 -0.77887,-0.32233 0,0.0413 0.12833,0.43873 0.28517,0.88327 0.15684,0.44453 0.28516,1.09691 0.28516,1.44973 0,0.53854 -0.0686,0.64145 -0.42775,0.64132 -0.23526,-7e-5 -0.97194,-0.25759 -1.63706,-0.57224 l -1.2093,-0.57209 -0.54939,0.53714 -0.5494,0.53713 0.73801,0.41478 c 0.92934,0.52232 2.15589,1.86405 2.07726,2.27233 -0.15388,0.79904 -2.65513,1.56554 -5.10868,1.56554 h -1.64356 l -0.11212,1.20073 c -0.14633,1.56685 -0.74617,3.13913 -1.48656,3.89641 -0.93145,0.95271 -1.33046,0.83373 -3.04726,-0.90863 -0.82091,-0.83314 -1.49257,-1.39222 -1.49257,-1.24241 0,0.35631 -0.59608,0.66599 -1.28193,0.66599 -0.30057,0 -1.03337,-0.29318 -1.62844,-0.65152 -0.64151,-0.3863 -1.08195,-0.55513 -1.08195,-0.41473 0,0.70408 -0.62488,2.22273 -0.99641,2.42156 -1.77099,0.94781 -4.48802,-1.52872 -5.73213,-5.22477 -0.0837,-0.24865 -0.21611,-0.31084 -0.44972,-0.21121 -0.18211,0.0777 -0.80161,0.18045 -1.3767,0.22841 -0.86039,0.0718 -1.13563,0.0162 -1.55381,-0.31391 -0.7175,-0.56629 -0.83653,-1.33091 -0.37103,-2.38326 0.21042,-0.47568 0.34256,-0.86487 0.29366,-0.86487 -0.0489,0 -1.37933,0.86304 -2.95651,1.91785 -2.6002,1.73901 -4.96886,3.05447 -6.395524,3.55181 -0.467726,0.16304 -0.636802,0.46724 -1.358275,2.44373 -1.153099,3.15892 -2.326253,5.86936 -3.692511,8.53115 -1.572316,3.06322 -2.443229,3.94531 -4.973184,5.03701 -2.86356,1.23564 -2.700339,1.05465 -2.858969,3.17039 -0.08042,1.07269 -0.04275,2.87916 0.09194,4.4093 0.125491,1.42567 0.300625,5.15861 0.389176,8.29542 0.133897,4.74296 0.240778,6.15147 0.634761,8.36486 0.26056,1.46385 0.574685,3.64536 0.698056,4.84781 0.424377,4.13634 1.448436,5.94007 4.208463,7.41259 1.017356,0.54277 1.187596,0.57221 3.326931,0.57534 3.18952,0.004 5.463227,0.28093 8.542426,1.038 1.47159,0.36181 3.9953,0.87796 5.60825,1.14701 3.10438,0.51781 4.16836,0.78339 4.16836,1.04044 0,0.72129 -6.48569,1.24962 -8.54865,0.69638 -0.97998,-0.26281 -1.08303,-0.25619 -1.80605,0.11607 -0.44835,0.23085 -1.16149,0.40264 -1.717303,0.41369 -0.522808,0.0104 -1.134044,0.12263 -1.358311,0.24943 -0.650281,0.36764 -2.37004,0.49068 -3.520431,0.25186 -2.634709,-0.54696 -5.169658,-0.70208 -7.591417,-0.46452 -1.937487,0.19006 -2.714739,0.18407 -4.354605,-0.0336 -1.097887,-0.14571 -2.20314,-0.32389 -2.456112,-0.39595 -0.450911,-0.12843 -0.453714,-0.1221 -0.142584,0.3221 0.174559,0.24922 0.317373,0.53141 0.317373,0.62711 0,0.42967 -3.747197,-0.43803 -4.943545,-1.14473 -0.511476,-0.30214 -0.570719,-0.29377 -1.548815,0.21869 -0.728306,0.38159 -1.313805,0.53845 -2.062603,0.55262 -1.020431,0.0193 -1.045421,0.007 -1.038114,-0.50303 0.0043,-0.28754 -0.0065,-0.5228 -0.02429,-0.5228 -0.01746,0 -0.33893,0.12832 -0.714303,0.28516 -0.375372,0.15684 -1.262703,0.28784 -1.971846,0.2911 -1.030971,0.005 -1.441739,0.0998 -2.049792,0.47431 -0.692998,0.42682 -0.955742,0.46845 -2.962552,0.46934 -1.211164,5.3e-4 -2.256132,-0.053 -2.322164,-0.11908 -0.06603,-0.066 -0.03449,-0.27991 0.07006,-0.47528 0.186185,-0.34789 -0.06912,-0.53635 -0.275088,-0.20307 -0.05173,0.0837 -1.400603,0.13827 -2.99753,0.1213 -2.110795,-0.0224 -3.076481,0.0415 -3.537107,0.2339 -1.191562,0.49786 -4.248047,0.82115 -7.774276,0.8223 -2.8631,7.2e-4 -3.467432,-0.0465 -3.556629,-0.2789 z m 47.261649,-49.42478 c 1.124028,-1.35433 2.043685,-2.58955 2.043685,-2.74495 0,-0.1554 0.470527,-1.28429 1.045607,-2.50864 0.575088,-1.22435 1.045608,-2.32255 1.045608,-2.44044 0,-0.31182 -0.900142,0.19433 -3.222371,1.81191 -2.675076,1.86337 -4.326804,3.38694 -5.443273,5.02094 -0.911222,1.33362 -0.923947,1.37291 -1.023858,3.16097 -0.05561,0.9958 -0.06812,1.84355 -0.02766,1.88387 0.04045,0.0403 0.853135,-0.33046 1.806046,-0.82398 1.665919,-0.86277 1.811191,-0.99201 3.776255,-3.35968 z m -16.396623,-6.20053 c -0.112809,-3.19991 -0.29612,-5.76609 -0.474379,-6.64095 -0.159779,-0.7842 -0.381444,-2.23149 -0.492579,-3.21618 -0.11393,-1.00939 -0.371385,-2.15056 -0.590219,-2.61611 -0.56275,-1.1972 -1.929454,-2.32241 -4.362523,-3.59168 -2.326346,-1.21359 -4.144292,-2.48479 -4.776624,-3.34006 -0.610001,-0.825073 -0.924924,-0.68889 -0.481147,0.20806 0.227974,0.46078 0.322417,0.90778 0.244004,1.15484 -0.149331,0.47051 -1.489628,1.09932 -2.695446,1.26459 -0.450919,0.0618 -0.819854,0.17087 -0.819854,0.24236 0,0.0715 0.213877,0.31595 0.475277,0.54324 0.738402,0.64203 0.619737,1.12779 -0.380223,1.55642 -0.834138,0.35755 -0.855493,0.38821 -0.855493,1.22833 0,0.92923 1.286516,5.14409 2.004224,6.56619 0.534562,1.05921 1.013504,1.49874 3.413916,3.13301 3.853237,2.62339 7.80855,6.04179 9.315401,8.05091 0.313687,0.41823 0.590399,0.74056 0.61493,0.71629 0.0245,-0.0243 -0.03815,-2.39095 -0.139265,-5.25926 z m 13.129179,0.87467 c 0.863216,-1.14332 2.757599,-2.65679 4.879941,-3.89869 1.952503,-1.14253 3.426612,-2.77989 4.115859,-4.57169 0.300768,-0.78189 1.309932,-2.9959 2.242588,-4.92002 l 1.695738,-3.4984 -0.556808,-0.58897 c -0.732819,-0.77514 -0.982658,-1.2894 -0.982658,-2.02264 0,-0.50334 -0.05504,-0.579 -0.332692,-0.45712 -0.182981,0.0803 -0.520192,0.14162 -0.749359,0.1362 -0.366859,-0.009 -0.431217,0.11834 -0.538378,1.06248 -0.172907,1.52343 -0.25622,1.73473 -0.777677,1.97232 -0.400277,0.18237 -0.581604,0.12855 -1.31984,-0.39181 -0.4707,-0.33178 -0.905186,-0.60323 -0.965521,-0.60323 -0.277783,0 -3.338442,2.55396 -4.230953,3.53051 -2.048327,2.2412 -3.875663,5.54608 -4.200667,7.59725 -0.09886,0.62389 -0.204026,2.52688 -0.233708,4.22887 -0.04505,2.58423 -0.0072,3.12453 0.231186,3.27649 0.565596,0.36092 0.951545,0.17016 1.722949,-0.85155 z m -31.094985,-3.69362 1.520885,-0.14248 -1.246228,-0.57948 c -1.904449,-0.88555 -1.983817,-0.89742 -2.240051,-0.33504 -0.132575,0.29097 -0.569045,0.64227 -1.077367,0.86712 -0.469974,0.20789 -0.854501,0.41354 -0.854501,0.45699 0,0.0773 0.824331,0.0208 3.897262,-0.26711 z m 0.967209,-4.45676 c -0.270561,-0.7839 -0.491932,-1.64111 -0.491932,-1.90491 0,-0.26381 -0.06416,-0.51501 -0.142584,-0.55823 -0.07842,-0.0432 -0.697252,0.17489 -1.375175,0.48468 l -1.232583,0.56325 0.692639,0.35534 c 0.711406,0.36498 1.487372,1.19336 1.487372,1.58785 0,0.21843 1.35395,1.09752 1.486396,0.96508 0.03729,-0.0373 -0.153571,-0.70917 -0.424133,-1.49306 z m 43.115633,0.26667 c 3.267769,-1.74308 3.779889,-2.13066 3.818349,-2.88974 0.0178,-0.35169 0.0917,-0.76776 0.16411,-0.9246 0.11012,-0.2384 -0.0869,-0.28691 -1.20144,-0.29584 -1.43231,-0.0115 -2.18869,-0.36299 -2.56572,-1.19242 -0.10322,-0.22706 -0.250385,-0.41284 -0.327037,-0.41284 -0.121532,0 -2.241898,6.3427 -2.241898,6.70623 0,0.24238 0.198256,0.15892 2.353636,-0.99079 z m -42.276795,-6.39667 c 0,-0.46255 -0.07628,-0.65455 -0.237639,-0.59813 -0.220401,0.0771 -0.237164,0.46972 -0.04448,1.04172 0.150252,0.44599 0.282101,0.23866 0.282101,-0.44359 z m 26.796842,-0.50696 c 0.502609,-0.54894 2.455602,-2.40301 4.339982,-4.12016 2.062446,-1.879397 3.387783,-3.222051 3.329755,-3.373265 -0.06718,-0.175083 -0.257492,-0.07874 -0.628058,0.317949 -1.281392,1.371736 -2.757074,0.139142 -3.13096,-2.615202 -0.08275,-0.609591 -0.229555,-0.998077 -0.377176,-0.998077 -0.132927,0 -0.471605,-0.180853 -0.752614,-0.401894 -0.281009,-0.22104 -0.549601,-0.363215 -0.59688,-0.315936 -0.04728,0.04728 0,0.539233 0.10507,1.093225 0.259776,1.369807 0.240706,3.11097 -0.03708,3.388789 -0.125469,0.125469 -0.485782,0.228132 -0.800683,0.228132 -0.449755,0 -0.782599,-0.225704 -1.55194,-1.052369 l -0.979395,-1.052362 -0.118938,0.71967 c -0.20639,1.248886 -0.134875,2.078059 0.252929,2.93271 0.450171,0.99209 0.475305,1.80398 0.09923,3.20511 -0.274887,1.02413 -0.391698,3.04176 -0.176104,3.04176 0.06,0 0.520286,-0.44913 1.022896,-0.99808 z m -6.715376,-4.51512 c -0.114799,-3.207184 -0.316072,-4.616575 -0.69253,-4.849241 -0.101614,-0.0628 -0.159937,0.200066 -0.13555,0.610949 0.03549,0.598253 -0.02335,0.730656 -0.345332,0.776778 -0.213474,0.03054 -0.756113,-0.210967 -1.205868,-0.536769 -0.449756,-0.325801 -0.841677,-0.564676 -0.870935,-0.530833 -0.02924,0.03384 -0.191107,0.332822 -0.359666,0.6644 -0.401894,0.790567 -1.27019,1.393289 -2.007212,1.393289 h -0.590701 l 0.810161,1.0285 c 0.445587,0.565677 1.195125,1.569777 1.665653,2.231347 0.47052,0.66156 1.409953,1.79138 2.087631,2.51071 l 1.23213,1.30787 0.265647,-0.64004 c 0.209932,-0.50579 0.240671,-1.3378 0.146572,-3.96696 z m -6.492582,1.29557 c -0.18035,-0.55572 -0.499025,-1.41676 -0.708166,-1.91343 -0.340395,-0.808347 -0.443662,-0.90302 -0.985015,-0.90302 -0.344368,0 -0.989131,-0.243761 -1.497475,-0.566142 l -0.892712,-0.566142 v 0.66527 c 0,0.525142 -0.10012,0.710884 -0.475277,0.881824 -0.2614,0.11911 -0.475277,0.28426 -0.475277,0.36702 0,0.34795 5.074361,3.33248 5.293454,3.11338 0.03758,-0.0376 -0.07919,-0.52305 -0.259532,-1.07876 z M 22.361346,76.702917 c -0.06891,-0.111516 -0.312746,-0.199729 -0.541842,-0.196022 -0.401685,0.0065 -0.399601,0.01609 0.05849,0.269613 0.508379,0.281354 0.686028,0.254309 0.483374,-0.07359 z"
       id="path1" /></g></svg>
